<?xml version="1.0" encoding="UTF-8" standalone="no"?>
<!-- Created with Inkscape (http://www.inkscape.org/) -->

<svg
   xmlns:dc="http://purl.org/dc/elements/1.1/"
   xmlns:cc="http://creativecommons.org/ns#"
   xmlns:rdf="http://www.w3.org/1999/02/22-rdf-syntax-ns#"
   xmlns:svg="http://www.w3.org/2000/svg"
   xmlns="http://www.w3.org/2000/svg"
   xmlns:sodipodi="http://sodipodi.sourceforge.net/DTD/sodipodi-0.dtd"
   xmlns:inkscape="http://www.inkscape.org/namespaces/inkscape"
   width="1052.3622"
   height="744.09448"
   id="svg2"
   version="1.1"
   inkscape:version="0.48.4 r9939"
   sodipodi:docname="Nuevo documento 1">
  <defs
     id="defs4" />
  <sodipodi:namedview
     id="base"
     pagecolor="#ffffff"
     bordercolor="#666666"
     borderopacity="1.0"
     inkscape:pageopacity="0.0"
     inkscape:pageshadow="2"
     inkscape:zoom="0.98994949"
     inkscape:cx="563.71975"
     inkscape:cy="398.78169"
     inkscape:document-units="px"
     inkscape:current-layer="layer1"
     showgrid="false"
     inkscape:window-width="1591"
     inkscape:window-height="836"
     inkscape:window-x="65"
     inkscape:window-y="216"
     inkscape:window-maximized="0">
    <inkscape:grid
       type="xygrid"
       id="grid4351"
       empspacing="5"
       visible="true"
       enabled="true"
       snapvisiblegridlinesonly="true" />
  </sodipodi:namedview>
  <metadata
     id="metadata7">
    <rdf:RDF>
      <cc:Work
         rdf:about="">
        <dc:format>image/svg+xml</dc:format>
        <dc:type
           rdf:resource="http://purl.org/dc/dcmitype/StillImage" />
        <dc:title></dc:title>
      </cc:Work>
    </rdf:RDF>
  </metadata>
  <g
     inkscape:label="Capa 1"
     inkscape:groupmode="layer"
     id="layer1"
     transform="translate(0,-308.2677)">
    <g
       id="g3367"
       transform="translate(63.500002,397.36218)">
      <line
         id="line2987"
         y2="0"
         y1="0"
         x2="-15"
         x1="-20"
         style="stroke:#000000" />
      <text
         id="text2989"
         y="7"
         x="0"
         font-variant="small-caps"
         style="font-variant:small-caps;text-anchor:end;font-family:Arial" />
      <line
         id="line2991"
         y2="50"
         y1="50"
         x2="-15"
         x1="-20"
         style="stroke:#000000" />
      <text
         id="text2993"
         y="57"
         x="0"
         font-variant="small-caps"
         style="font-variant:small-caps;text-anchor:end;font-family:Arial">1</text>
      <line
         id="line2995"
         y2="100"
         y1="100"
         x2="-15"
         x1="-20"
         style="stroke:#000000" />
      <text
         id="text2997"
         y="107"
         x="0"
         font-variant="small-caps"
         style="font-variant:small-caps;text-anchor:end;font-family:Arial">2</text>
      <line
         id="line2999"
         y2="150"
         y1="150"
         x2="-15"
         x1="-20"
         style="stroke:#000000" />
      <text
         id="text3001"
         y="157"
         x="0"
         font-variant="small-caps"
         style="font-variant:small-caps;text-anchor:end;font-family:Arial">3</text>
      <line
         id="line3003"
         y2="200"
         y1="200"
         x2="-15"
         x1="-20"
         style="stroke:#000000" />
      <text
         id="text3005"
         y="207"
         x="0"
         font-variant="small-caps"
         style="font-variant:small-caps;text-anchor:end;font-family:Arial">4</text>
      <line
         id="line3007"
         y2="250"
         y1="250"
         x2="-15"
         x1="-20"
         style="stroke:#000000" />
      <text
         id="text3009"
         y="257"
         x="0"
         font-variant="small-caps"
         style="font-variant:small-caps;text-anchor:end;font-family:Arial">5</text>
      <line
         id="line3011"
         y2="300"
         y1="300"
         x2="-15"
         x1="-20"
         style="stroke:#000000" />
      <text
         id="text3013"
         y="307"
         x="0"
         font-variant="small-caps"
         style="font-variant:small-caps;text-anchor:end;font-family:Arial">6</text>
      <line
         id="line3015"
         y2="350"
         y1="350"
         x2="-15"
         x1="-20"
         style="stroke:#000000" />
      <text
         id="text3017"
         y="357"
         x="0"
         font-variant="small-caps"
         style="font-variant:small-caps;text-anchor:end;font-family:Arial">7</text>
      <line
         id="line3019"
         y2="400"
         y1="400"
         x2="-15"
         x1="-20"
         style="stroke:#000000" />
      <text
         id="text3021"
         y="407"
         x="0"
         font-variant="small-caps"
         style="font-variant:small-caps;text-anchor:end;font-family:Arial">8</text>
      <line
         id="line3023"
         y2="450"
         y1="450"
         x2="-15"
         x1="-20"
         style="stroke:#000000" />
      <text
         id="text3025"
         y="457"
         x="0"
         font-variant="small-caps"
         style="font-variant:small-caps;text-anchor:end;font-family:Arial">9</text>
      <line
         id="line3027"
         y2="500"
         y1="500"
         x2="-15"
         x1="-20"
         style="stroke:#000000" />
      <text
         id="text3029"
         y="507"
         x="0"
         font-variant="small-caps"
         style="font-variant:small-caps;text-anchor:end;font-family:Arial" />
      <line
         id="line3031"
         y2="550"
         y1="550"
         x2="-15"
         x1="-20"
         style="stroke:#000000" />
      <text
         id="text3033"
         y="557"
         x="0"
         font-variant="small-caps"
         style="font-variant:small-caps;text-anchor:end;font-family:Arial" />
      <line
         id="line3035"
         y2="550"
         y1="0"
         x2="-20"
         x1="-20"
         style="stroke:#000000" />
      <line
         id="line3037"
         y2="150"
         y1="100"
         x2="100"
         x1="100"
         style="stroke:#fa9600;stroke-width:1.5;stroke-opacity:1" />
      <line
         id="line3039"
         y2="195"
         y1="145"
         x2="55"
         x1="100"
         style="stroke:#009600;stroke-width:1.5;stroke-opacity:0.2" />
      <line
         id="line3041"
         y2="200"
         y1="150"
         x2="55"
         x1="100"
         style="stroke:#960000;stroke-width:1.5;stroke-opacity:1" />
      <line
         id="line3043"
         y2="245"
         y1="195"
         x2="46"
         x1="55"
         style="stroke:#009600;stroke-width:1.5;stroke-opacity:1" />
      <line
         id="line3045"
         y2="250"
         y1="200"
         x2="46"
         x1="55"
         style="stroke:#960000;stroke-width:1.5;stroke-opacity:0.2" />
      <line
         id="line3047"
         y2="295"
         y1="245"
         x2="100"
         x1="46"
         style="stroke:#009600;stroke-width:1.5;stroke-opacity:0.2" />
      <line
         id="line3049"
         y2="300"
         y1="250"
         x2="100"
         x1="46"
         style="stroke:#960000;stroke-width:1.5;stroke-opacity:1" />
      <line
         id="line3051"
         y2="345"
         y1="295"
         x2="280"
         x1="100"
         style="stroke:#009600;stroke-width:1.5;stroke-opacity:1" />
      <line
         id="line3053"
         y2="350"
         y1="300"
         x2="280"
         x1="100"
         style="stroke:#960000;stroke-width:1.5;stroke-opacity:0.2" />
      <line
         id="line3055"
         y2="395"
         y1="345"
         x2="280"
         x1="280"
         style="stroke:#009600;stroke-width:1.5;stroke-opacity:0.2" />
      <line
         id="line3057"
         y2="400"
         y1="350"
         x2="280"
         x1="280"
         style="stroke:#960000;stroke-width:1.5;stroke-opacity:1" />
      <line
         id="line3059"
         y2="450"
         y1="400"
         x2="280"
         x1="280"
         style="stroke:#fa9600;stroke-width:1.5;stroke-opacity:1" />
      <line
         id="line3061"
         y2="150"
         y1="100"
         x2="100"
         x1="220"
         style="stroke:#fa9600;stroke-width:1.5;stroke-opacity:1" />
      <line
         id="line3063"
         y2="150"
         y1="100"
         x2="220"
         x1="220"
         style="stroke:#fa9600;stroke-width:1.5;stroke-opacity:1" />
      <line
         id="line3065"
         y2="195"
         y1="145"
         x2="55"
         x1="220"
         style="stroke:#009600;stroke-width:1.5;stroke-opacity:0.2" />
      <line
         id="line3067"
         y2="200"
         y1="150"
         x2="55"
         x1="220"
         style="stroke:#960000;stroke-width:1.5;stroke-opacity:1" />
      <line
         id="line3069"
         y2="145"
         y1="95"
         x2="220"
         x1="460"
         style="stroke:#009600;stroke-width:1.5;stroke-opacity:0.2" />
      <line
         id="line3071"
         y2="150"
         y1="100"
         x2="220"
         x1="460"
         style="stroke:#960000;stroke-width:1.5;stroke-opacity:1" />
      <line
         id="line3073"
         y2="195"
         y1="145"
         x2="280"
         x1="100"
         style="stroke:#009600;stroke-width:1.5;stroke-opacity:0.2" />
      <line
         id="line3075"
         y2="200"
         y1="150"
         x2="280"
         x1="100"
         style="stroke:#960000;stroke-width:1.5;stroke-opacity:1" />
      <line
         id="line3077"
         y2="245"
         y1="195"
         x2="46"
         x1="280"
         style="stroke:#009600;stroke-width:1.5;stroke-opacity:1" />
      <line
         id="line3079"
         y2="250"
         y1="200"
         x2="46"
         x1="280"
         style="stroke:#960000;stroke-width:1.5;stroke-opacity:0.2" />
      <line
         id="line3081"
         y2="195"
         y1="145"
         x2="205"
         x1="220"
         style="stroke:#009600;stroke-width:1.5;stroke-opacity:0.2" />
      <line
         id="line3083"
         y2="200"
         y1="150"
         x2="205"
         x1="220"
         style="stroke:#960000;stroke-width:1.5;stroke-opacity:1" />
      <line
         id="line3085"
         y2="245"
         y1="195"
         x2="113"
         x1="205"
         style="stroke:#009600;stroke-width:1.5;stroke-opacity:1" />
      <line
         id="line3087"
         y2="250"
         y1="200"
         x2="113"
         x1="205"
         style="stroke:#960000;stroke-width:1.5;stroke-opacity:0.2" />
      <line
         id="line3089"
         y2="300"
         y1="250"
         x2="100"
         x1="113"
         style="stroke:#fa9600;stroke-width:1.5;stroke-opacity:1" />
      <line
         id="line3091"
         y2="150"
         y1="100"
         x2="460"
         x1="220"
         style="stroke:#fa9600;stroke-width:1.5;stroke-opacity:1" />
      <line
         id="line3093"
         y2="195"
         y1="145"
         x2="205"
         x1="460"
         style="stroke:#009600;stroke-width:1.5;stroke-opacity:0.2" />
      <line
         id="line3095"
         y2="200"
         y1="150"
         x2="205"
         x1="460"
         style="stroke:#960000;stroke-width:1.5;stroke-opacity:1" />
      <line
         id="line3097"
         y2="145"
         y1="95"
         x2="460"
         x1="340"
         style="stroke:#009600;stroke-width:1.5;stroke-opacity:0.2" />
      <line
         id="line3099"
         y2="150"
         y1="100"
         x2="460"
         x1="340"
         style="stroke:#960000;stroke-width:1.5;stroke-opacity:1" />
      <line
         id="line3101"
         y2="245"
         y1="195"
         x2="313"
         x1="55"
         style="stroke:#009600;stroke-width:1.5;stroke-opacity:1" />
      <line
         id="line3103"
         y2="250"
         y1="200"
         x2="313"
         x1="55"
         style="stroke:#960000;stroke-width:1.5;stroke-opacity:0.2" />
      <line
         id="line3105"
         y2="295"
         y1="245"
         x2="100"
         x1="313"
         style="stroke:#009600;stroke-width:1.5;stroke-opacity:0.2" />
      <line
         id="line3107"
         y2="300"
         y1="250"
         x2="100"
         x1="313"
         style="stroke:#960000;stroke-width:1.5;stroke-opacity:1" />
      <line
         id="line3109"
         y2="245"
         y1="195"
         x2="313"
         x1="205"
         style="stroke:#009600;stroke-width:1.5;stroke-opacity:1" />
      <line
         id="line3111"
         y2="250"
         y1="200"
         x2="313"
         x1="205"
         style="stroke:#960000;stroke-width:1.5;stroke-opacity:0.2" />
      <line
         id="line3113"
         y2="195"
         y1="145"
         x2="355"
         x1="100"
         style="stroke:#009600;stroke-width:1.5;stroke-opacity:0.2" />
      <line
         id="line3115"
         y2="200"
         y1="150"
         x2="355"
         x1="100"
         style="stroke:#960000;stroke-width:1.5;stroke-opacity:1" />
      <line
         id="line3117"
         y2="245"
         y1="195"
         x2="313"
         x1="355"
         style="stroke:#009600;stroke-width:1.5;stroke-opacity:1" />
      <line
         id="line3119"
         y2="250"
         y1="200"
         x2="313"
         x1="355"
         style="stroke:#960000;stroke-width:1.5;stroke-opacity:0.2" />
      <line
         id="line3121"
         y2="145"
         y1="95"
         x2="340"
         x1="100"
         style="stroke:#009600;stroke-width:1.5;stroke-opacity:0.2" />
      <line
         id="line3123"
         y2="150"
         y1="100"
         x2="340"
         x1="100"
         style="stroke:#960000;stroke-width:1.5;stroke-opacity:1" />
      <line
         id="line3125"
         y2="195"
         y1="145"
         x2="355"
         x1="340"
         style="stroke:#009600;stroke-width:1.5;stroke-opacity:0.2" />
      <line
         id="line3127"
         y2="200"
         y1="150"
         x2="355"
         x1="340"
         style="stroke:#960000;stroke-width:1.5;stroke-opacity:1" />
      <line
         id="line3129"
         y2="145"
         y1="95"
         x2="340"
         x1="340"
         style="stroke:#009600;stroke-width:1.5;stroke-opacity:0.2" />
      <line
         id="line3131"
         y2="150"
         y1="100"
         x2="340"
         x1="340"
         style="stroke:#960000;stroke-width:1.5;stroke-opacity:1" />
      <line
         id="line3133"
         y2="195"
         y1="145"
         x2="355"
         x1="460"
         style="stroke:#009600;stroke-width:1.5;stroke-opacity:0.2" />
      <line
         id="line3135"
         y2="200"
         y1="150"
         x2="355"
         x1="460"
         style="stroke:#960000;stroke-width:1.5;stroke-opacity:1" />
      <line
         id="line3137"
         y2="245"
         y1="195"
         x2="380"
         x1="280"
         style="stroke:#009600;stroke-width:1.5;stroke-opacity:1" />
      <line
         id="line3139"
         y2="250"
         y1="200"
         x2="380"
         x1="280"
         style="stroke:#960000;stroke-width:1.5;stroke-opacity:0.2" />
      <line
         id="line3141"
         y2="295"
         y1="245"
         x2="100"
         x1="380"
         style="stroke:#009600;stroke-width:1.5;stroke-opacity:1" />
      <line
         id="line3143"
         y2="300"
         y1="250"
         x2="100"
         x1="380"
         style="stroke:#960000;stroke-width:1.5;stroke-opacity:0.2" />
      <line
         id="line3145"
         y2="245"
         y1="195"
         x2="380"
         x1="355"
         style="stroke:#009600;stroke-width:1.5;stroke-opacity:1" />
      <line
         id="line3147"
         y2="250"
         y1="200"
         x2="380"
         x1="355"
         style="stroke:#960000;stroke-width:1.5;stroke-opacity:0.2" />
      <line
         id="line3149"
         y2="195"
         y1="145"
         x2="505"
         x1="340"
         style="stroke:#009600;stroke-width:1.5;stroke-opacity:0.2" />
      <line
         id="line3151"
         y2="200"
         y1="150"
         x2="505"
         x1="340"
         style="stroke:#960000;stroke-width:1.5;stroke-opacity:1" />
      <line
         id="line3153"
         y2="245"
         y1="195"
         x2="380"
         x1="505"
         style="stroke:#009600;stroke-width:1.5;stroke-opacity:0.2" />
      <line
         id="line3155"
         y2="250"
         y1="200"
         x2="380"
         x1="505"
         style="stroke:#960000;stroke-width:1.5;stroke-opacity:0.2" />
      <line
         id="line3157"
         y2="245"
         y1="195"
         x2="180"
         x1="280"
         style="stroke:#009600;stroke-width:1.5;stroke-opacity:1" />
      <line
         id="line3159"
         y2="250"
         y1="200"
         x2="180"
         x1="280"
         style="stroke:#960000;stroke-width:1.5;stroke-opacity:0.2" />
      <line
         id="line3161"
         y2="295"
         y1="245"
         x2="220"
         x1="180"
         style="stroke:#009600;stroke-width:1.5;stroke-opacity:0.2" />
      <line
         id="line3163"
         y2="300"
         y1="250"
         x2="220"
         x1="180"
         style="stroke:#960000;stroke-width:1.5;stroke-opacity:0.2" />
      <line
         id="line3165"
         y2="350"
         y1="300"
         x2="280"
         x1="220"
         style="stroke:#fa9600;stroke-width:1.5;stroke-opacity:1" />
      <line
         id="line3167"
         y2="195"
         y1="145"
         x2="430"
         x1="100"
         style="stroke:#009600;stroke-width:1.5;stroke-opacity:0.2" />
      <line
         id="line3169"
         y2="200"
         y1="150"
         x2="430"
         x1="100"
         style="stroke:#960000;stroke-width:1.5;stroke-opacity:1" />
      <line
         id="line3171"
         y2="245"
         y1="195"
         x2="180"
         x1="430"
         style="stroke:#009600;stroke-width:1.5;stroke-opacity:0.2" />
      <line
         id="line3173"
         y2="250"
         y1="200"
         x2="180"
         x1="430"
         style="stroke:#960000;stroke-width:1.5;stroke-opacity:0.2" />
      <line
         id="line3175"
         y2="295"
         y1="245"
         x2="220"
         x1="380"
         style="stroke:#009600;stroke-width:1.5;stroke-opacity:1" />
      <line
         id="line3177"
         y2="300"
         y1="250"
         x2="220"
         x1="380"
         style="stroke:#960000;stroke-width:1.5;stroke-opacity:0.2" />
      <line
         id="line3179"
         y2="195"
         y1="145"
         x2="130"
         x1="460"
         style="stroke:#009600;stroke-width:1.5;stroke-opacity:0.2" />
      <line
         id="line3181"
         y2="200"
         y1="150"
         x2="130"
         x1="460"
         style="stroke:#960000;stroke-width:1.5;stroke-opacity:1" />
      <line
         id="line3183"
         y2="245"
         y1="195"
         x2="513"
         x1="130"
         style="stroke:#009600;stroke-width:1.5;stroke-opacity:1" />
      <line
         id="line3185"
         y2="250"
         y1="200"
         x2="513"
         x1="130"
         style="stroke:#960000;stroke-width:1.5;stroke-opacity:0.2" />
      <line
         id="line3187"
         y2="295"
         y1="245"
         x2="220"
         x1="513"
         style="stroke:#009600;stroke-width:1.5;stroke-opacity:1" />
      <line
         id="line3189"
         y2="300"
         y1="250"
         x2="220"
         x1="513"
         style="stroke:#960000;stroke-width:1.5;stroke-opacity:0.2" />
      <line
         id="line3191"
         y2="245"
         y1="195"
         x2="513"
         x1="355"
         style="stroke:#009600;stroke-width:1.5;stroke-opacity:1" />
      <line
         id="line3193"
         y2="250"
         y1="200"
         x2="513"
         x1="355"
         style="stroke:#960000;stroke-width:1.5;stroke-opacity:0.2" />
      <line
         id="line3195"
         y2="245"
         y1="195"
         x2="513"
         x1="430"
         style="stroke:#009600;stroke-width:1.5;stroke-opacity:0.2" />
      <line
         id="line3197"
         y2="250"
         y1="200"
         x2="513"
         x1="430"
         style="stroke:#960000;stroke-width:1.5;stroke-opacity:0.2" />
      <line
         id="line3199"
         y2="245"
         y1="195"
         x2="246"
         x1="130"
         style="stroke:#009600;stroke-width:1.5;stroke-opacity:1" />
      <line
         id="line3201"
         y2="250"
         y1="200"
         x2="246"
         x1="130"
         style="stroke:#960000;stroke-width:1.5;stroke-opacity:0.2" />
      <line
         id="line3203"
         y2="300"
         y1="250"
         x2="340"
         x1="246"
         style="stroke:#fa9600;stroke-width:1.5;stroke-opacity:1" />
      <line
         id="line3205"
         y2="345"
         y1="295"
         x2="280"
         x1="340"
         style="stroke:#009600;stroke-width:1.5;stroke-opacity:0.2" />
      <line
         id="line3207"
         y2="350"
         y1="300"
         x2="280"
         x1="340"
         style="stroke:#960000;stroke-width:1.5;stroke-opacity:0.2" />
      <line
         id="line3209"
         y2="245"
         y1="195"
         x2="246"
         x1="205"
         style="stroke:#009600;stroke-width:1.5;stroke-opacity:1" />
      <line
         id="line3211"
         y2="250"
         y1="200"
         x2="246"
         x1="205"
         style="stroke:#960000;stroke-width:1.5;stroke-opacity:0.2" />
      <line
         id="line3213"
         y2="295"
         y1="245"
         x2="340"
         x1="313"
         style="stroke:#009600;stroke-width:1.5;stroke-opacity:0.2" />
      <line
         id="line3215"
         y2="300"
         y1="250"
         x2="340"
         x1="313"
         style="stroke:#960000;stroke-width:1.5;stroke-opacity:1" />
      <line
         id="line3217"
         y2="245"
         y1="195"
         x2="446"
         x1="55"
         style="stroke:#009600;stroke-width:1.5;stroke-opacity:1" />
      <line
         id="line3219"
         y2="250"
         y1="200"
         x2="446"
         x1="55"
         style="stroke:#960000;stroke-width:1.5;stroke-opacity:0.2" />
      <line
         id="line3221"
         y2="300"
         y1="250"
         x2="340"
         x1="446"
         style="stroke:#fa9600;stroke-width:1.5;stroke-opacity:1" />
      <line
         id="line3223"
         y2="245"
         y1="195"
         x2="446"
         x1="430"
         style="stroke:#009600;stroke-width:1.5;stroke-opacity:0.2" />
      <line
         id="line3225"
         y2="250"
         y1="200"
         x2="446"
         x1="430"
         style="stroke:#960000;stroke-width:1.5;stroke-opacity:0.2" />
      <line
         id="line3227"
         y2="300"
         y1="250"
         x2="340"
         x1="513"
         style="stroke:#fa9600;stroke-width:1.5;stroke-opacity:1" />
      <line
         id="line3229"
         y2="300"
         y1="250"
         x2="460"
         x1="46"
         style="stroke:#fa9600;stroke-width:1.5;stroke-opacity:1" />
      <line
         id="line3231"
         y2="345"
         y1="295"
         x2="280"
         x1="460"
         style="stroke:#009600;stroke-width:1.5;stroke-opacity:0.2" />
      <line
         id="line3233"
         y2="350"
         y1="300"
         x2="280"
         x1="460"
         style="stroke:#960000;stroke-width:1.5;stroke-opacity:0.2" />
      <line
         id="line3235"
         y2="300"
         y1="250"
         x2="460"
         x1="180"
         style="stroke:#fa9600;stroke-width:1.5;stroke-opacity:1" />
      <line
         id="line3237"
         y2="295"
         y1="245"
         x2="460"
         x1="446"
         style="stroke:#009600;stroke-width:1.5;stroke-opacity:1" />
      <line
         id="line3239"
         y2="300"
         y1="250"
         x2="460"
         x1="446"
         style="stroke:#960000;stroke-width:1.5;stroke-opacity:0.2" />
      <circle
         id="circle3241"
         style="fill:#c0c0c0;fill-opacity:1;stroke:#808080;stroke-width:1;stroke-opacity:1"
         r="20"
         cy="100"
         cx="100"
         sodipodi:cx="100"
         sodipodi:cy="100"
         sodipodi:rx="20"
         sodipodi:ry="20"
         d="m 120,100 c 0,11.04569 -8.95431,20 -20,20 -11.045695,0 -20,-8.95431 -20,-20 0,-11.045695 8.954305,-20 20,-20 11.04569,0 20,8.954305 20,20 z" />
      <text
         id="text3243"
         y="105"
         x="90"
         font-size="14"
         style="font-size:14px;fill:#ffffff;font-family:Arial">2.1</text>
      <circle
         id="circle3245"
         style="fill:#c0c0c0;fill-opacity:1;stroke:#808080;stroke-width:1;stroke-opacity:1"
         r="20"
         cy="100"
         cx="220"
         sodipodi:cx="220"
         sodipodi:cy="100"
         sodipodi:rx="20"
         sodipodi:ry="20"
         d="m 240,100 c 0,11.04569 -8.95431,20 -20,20 -11.04569,0 -20,-8.95431 -20,-20 0,-11.045695 8.95431,-20 20,-20 11.04569,0 20,8.954305 20,20 z" />
      <text
         id="text3247"
         y="105"
         x="210"
         font-size="14"
         style="font-size:14px;fill:#ffffff;font-family:Arial">2.3</text>
      <circle
         id="circle3249"
         style="fill:#c0c0c0;fill-opacity:1;stroke:#808080;stroke-width:1;stroke-opacity:1"
         r="20"
         cy="100"
         cx="340"
         sodipodi:cx="340"
         sodipodi:cy="100"
         sodipodi:rx="20"
         sodipodi:ry="20"
         d="m 360,100 c 0,11.04569 -8.95431,20 -20,20 -11.04569,0 -20,-8.95431 -20,-20 0,-11.045695 8.95431,-20 20,-20 11.04569,0 20,8.954305 20,20 z" />
      <text
         id="text3251"
         y="105"
         x="330"
         font-size="14"
         style="font-size:14px;fill:#ffffff;font-family:Arial">2.4</text>
      <circle
         id="circle3253"
         style="fill:#c0c0c0;fill-opacity:1;stroke:#808080;stroke-width:1;stroke-opacity:1"
         r="20"
         cy="100"
         cx="460"
         sodipodi:cx="460"
         sodipodi:cy="100"
         sodipodi:rx="20"
         sodipodi:ry="20"
         d="m 480,100 c 0,11.04569 -8.95431,20 -20,20 -11.04569,0 -20,-8.95431 -20,-20 0,-11.045695 8.95431,-20 20,-20 11.04569,0 20,8.954305 20,20 z" />
      <text
         id="text3255"
         y="105"
         x="450"
         font-size="14"
         style="font-size:14px;fill:#ffffff;font-family:Arial">2.5</text>
      <circle
         id="circle3257"
         style="fill:#c0c0c0;fill-opacity:1;stroke:#808080;stroke-width:1;stroke-opacity:1"
         r="20"
         cy="150"
         cx="100"
         sodipodi:cx="100"
         sodipodi:cy="150"
         sodipodi:rx="20"
         sodipodi:ry="20"
         d="m 120,150 c 0,11.04569 -8.95431,20 -20,20 -11.045695,0 -20,-8.95431 -20,-20 0,-11.04569 8.954305,-20 20,-20 11.04569,0 20,8.95431 20,20 z" />
      <text
         id="text3259"
         y="155"
         x="90"
         font-size="14"
         style="font-size:14px;fill:#ffffff;font-family:Arial">3.1</text>
      <circle
         id="circle3261"
         style="fill:#c0c0c0;fill-opacity:1;stroke:#808080;stroke-width:1;stroke-opacity:1"
         r="20"
         cy="150"
         cx="220"
         sodipodi:cx="220"
         sodipodi:cy="150"
         sodipodi:rx="20"
         sodipodi:ry="20"
         d="m 240,150 c 0,11.04569 -8.95431,20 -20,20 -11.04569,0 -20,-8.95431 -20,-20 0,-11.04569 8.95431,-20 20,-20 11.04569,0 20,8.95431 20,20 z" />
      <text
         id="text3263"
         y="155"
         x="210"
         font-size="14"
         style="font-size:14px;fill:#ffffff;font-family:Arial">3.4</text>
      <circle
         id="circle3265"
         style="fill:#c0c0c0;fill-opacity:1;stroke:#808080;stroke-width:1;stroke-opacity:1"
         r="20"
         cy="150"
         cx="340"
         sodipodi:cx="340"
         sodipodi:cy="150"
         sodipodi:rx="20"
         sodipodi:ry="20"
         d="m 360,150 c 0,11.04569 -8.95431,20 -20,20 -11.04569,0 -20,-8.95431 -20,-20 0,-11.04569 8.95431,-20 20,-20 11.04569,0 20,8.95431 20,20 z" />
      <text
         id="text3267"
         y="155"
         x="330"
         font-size="14"
         style="font-size:14px;fill:#ffffff;font-family:Arial">3.5</text>
      <circle
         id="circle3269"
         style="fill:#c0c0c0;fill-opacity:1;stroke:#808080;stroke-width:1;stroke-opacity:1"
         r="20"
         cy="150"
         cx="460"
         sodipodi:cx="460"
         sodipodi:cy="150"
         sodipodi:rx="20"
         sodipodi:ry="20"
         d="m 480,150 c 0,11.04569 -8.95431,20 -20,20 -11.04569,0 -20,-8.95431 -20,-20 0,-11.04569 8.95431,-20 20,-20 11.04569,0 20,8.95431 20,20 z" />
      <text
         id="text3271"
         y="155"
         x="450"
         font-size="14"
         style="font-size:14px;fill:#ffffff;font-family:Arial">3.6</text>
      <circle
         id="circle3273"
         style="fill:#c0c0c0;fill-opacity:1;stroke:#808080;stroke-width:1;stroke-opacity:1"
         r="20"
         cy="200"
         cx="55"
         sodipodi:cx="55"
         sodipodi:cy="200"
         sodipodi:rx="20"
         sodipodi:ry="20"
         d="m 75,200 c 0,11.04569 -8.954305,20 -20,20 -11.045695,0 -20,-8.95431 -20,-20 0,-11.04569 8.954305,-20 20,-20 11.045695,0 20,8.95431 20,20 z" />
      <text
         id="text3275"
         y="205"
         x="45"
         font-size="14"
         style="font-size:14px;fill:#ffffff;font-family:Arial">4.1</text>
      <circle
         id="circle3277"
         style="fill:#c0c0c0;fill-opacity:1;stroke:#808080;stroke-width:1;stroke-opacity:1"
         r="20"
         cy="200"
         cx="130"
         sodipodi:cx="130"
         sodipodi:cy="200"
         sodipodi:rx="20"
         sodipodi:ry="20"
         d="m 150,200 c 0,11.04569 -8.95431,20 -20,20 -11.04569,0 -20,-8.95431 -20,-20 0,-11.04569 8.95431,-20 20,-20 11.04569,0 20,8.95431 20,20 z" />
      <text
         id="text3279"
         y="205"
         x="118"
         font-size="14"
         style="font-size:14px;fill:#ffffff;font-family:Arial">4.12</text>
      <circle
         id="circle3281"
         style="fill:#c0c0c0;fill-opacity:1;stroke:#808080;stroke-width:1;stroke-opacity:1"
         r="20"
         cy="200"
         cx="205"
         sodipodi:cx="205"
         sodipodi:cy="200"
         sodipodi:rx="20"
         sodipodi:ry="20"
         d="m 225,200 c 0,11.04569 -8.95431,20 -20,20 -11.04569,0 -20,-8.95431 -20,-20 0,-11.04569 8.95431,-20 20,-20 11.04569,0 20,8.95431 20,20 z" />
      <text
         id="text3283"
         y="205"
         x="193"
         font-size="14"
         style="font-size:14px;fill:#ffffff;font-family:Arial">4.13</text>
      <circle
         id="circle3285"
         style="fill:#c0c0c0;fill-opacity:1;stroke:#808080;stroke-width:1;stroke-opacity:1"
         r="20"
         cy="200"
         cx="280"
         sodipodi:cx="280"
         sodipodi:cy="200"
         sodipodi:rx="20"
         sodipodi:ry="20"
         d="m 300,200 c 0,11.04569 -8.95431,20 -20,20 -11.04569,0 -20,-8.95431 -20,-20 0,-11.04569 8.95431,-20 20,-20 11.04569,0 20,8.95431 20,20 z" />
      <text
         id="text3287"
         y="205"
         x="270"
         font-size="14"
         style="font-size:14px;fill:#ffffff;font-family:Arial">4.2</text>
      <circle
         id="circle3289"
         style="fill:#c0c0c0;fill-opacity:1;stroke:#808080;stroke-width:1;stroke-opacity:1"
         r="20"
         cy="200"
         cx="355"
         sodipodi:cx="355"
         sodipodi:cy="200"
         sodipodi:rx="20"
         sodipodi:ry="20"
         d="m 375,200 c 0,11.04569 -8.95431,20 -20,20 -11.04569,0 -20,-8.95431 -20,-20 0,-11.04569 8.95431,-20 20,-20 11.04569,0 20,8.95431 20,20 z" />
      <text
         id="text3291"
         y="205"
         x="345"
         font-size="14"
         style="font-size:14px;fill:#ffffff;font-family:Arial">4.4</text>
      <circle
         id="circle3293"
         style="fill:#c0c0c0;fill-opacity:1;stroke:#808080;stroke-width:1;stroke-opacity:1"
         r="20"
         cy="200"
         cx="430"
         sodipodi:cx="430"
         sodipodi:cy="200"
         sodipodi:rx="20"
         sodipodi:ry="20"
         d="m 450,200 c 0,11.04569 -8.95431,20 -20,20 -11.04569,0 -20,-8.95431 -20,-20 0,-11.04569 8.95431,-20 20,-20 11.04569,0 20,8.95431 20,20 z" />
      <text
         id="text3295"
         y="205"
         x="420"
         font-size="14"
         style="font-size:14px;fill:#ffffff;font-family:Arial">4.6</text>
      <circle
         id="circle3297"
         style="fill:#c0c0c0;fill-opacity:1;stroke:#808080;stroke-width:1;stroke-opacity:1"
         r="20"
         cy="200"
         cx="505"
         sodipodi:cx="505"
         sodipodi:cy="200"
         sodipodi:rx="20"
         sodipodi:ry="20"
         d="m 525,200 c 0,11.04569 -8.95431,20 -20,20 -11.04569,0 -20,-8.95431 -20,-20 0,-11.04569 8.95431,-20 20,-20 11.04569,0 20,8.95431 20,20 z" />
      <text
         id="text3299"
         y="205"
         x="495"
         font-size="14"
         style="font-size:14px;fill:#ffffff;font-family:Arial">4.9</text>
      <circle
         id="circle3301"
         style="fill:#c0c0c0;fill-opacity:1;stroke:#808080;stroke-width:1;stroke-opacity:1"
         r="20"
         cy="250"
         cx="46"
         sodipodi:cx="46"
         sodipodi:cy="250"
         sodipodi:rx="20"
         sodipodi:ry="20"
         d="m 66,250 c 0,11.04569 -8.954305,20 -20,20 -11.045695,0 -20,-8.95431 -20,-20 0,-11.04569 8.954305,-20 20,-20 11.045695,0 20,8.95431 20,20 z" />
      <text
         id="text3303"
         y="255"
         x="36"
         font-size="14"
         style="font-size:14px;fill:#ffffff;font-family:Arial">5.1</text>
      <circle
         id="circle3305"
         style="fill:#c0c0c0;fill-opacity:1;stroke:#808080;stroke-width:1;stroke-opacity:1"
         r="20"
         cy="250"
         cx="113"
         sodipodi:cx="113"
         sodipodi:cy="250"
         sodipodi:rx="20"
         sodipodi:ry="20"
         d="m 133,250 c 0,11.04569 -8.95431,20 -20,20 -11.04569,0 -20,-8.95431 -20,-20 0,-11.04569 8.95431,-20 20,-20 11.04569,0 20,8.95431 20,20 z" />
      <text
         id="text3307"
         y="255"
         x="101"
         font-size="14"
         style="font-size:14px;fill:#ffffff;font-family:Arial">5.11</text>
      <circle
         id="circle3309"
         style="fill:#c0c0c0;fill-opacity:1;stroke:#808080;stroke-width:1;stroke-opacity:1"
         r="20"
         cy="250"
         cx="180"
         sodipodi:cx="180"
         sodipodi:cy="250"
         sodipodi:rx="20"
         sodipodi:ry="20"
         d="m 200,250 c 0,11.04569 -8.95431,20 -20,20 -11.04569,0 -20,-8.95431 -20,-20 0,-11.04569 8.95431,-20 20,-20 11.04569,0 20,8.95431 20,20 z" />
      <text
         id="text3311"
         y="255"
         x="168"
         font-size="14"
         style="font-size:14px;fill:#ffffff;font-family:Arial">5.12</text>
      <circle
         id="circle3313"
         style="fill:#c0c0c0;fill-opacity:1;stroke:#808080;stroke-width:1;stroke-opacity:1"
         r="20"
         cy="250"
         cx="246"
         sodipodi:cx="246"
         sodipodi:cy="250"
         sodipodi:rx="20"
         sodipodi:ry="20"
         d="m 266,250 c 0,11.04569 -8.95431,20 -20,20 -11.04569,0 -20,-8.95431 -20,-20 0,-11.04569 8.95431,-20 20,-20 11.04569,0 20,8.95431 20,20 z" />
      <text
         id="text3315"
         y="255"
         x="234"
         font-size="14"
         style="font-size:14px;fill:#ffffff;font-family:Arial">5.14</text>
      <circle
         id="circle3317"
         style="fill:#c0c0c0;fill-opacity:1;stroke:#808080;stroke-width:1;stroke-opacity:1"
         r="20"
         cy="250"
         cx="313"
         sodipodi:cx="313"
         sodipodi:cy="250"
         sodipodi:rx="20"
         sodipodi:ry="20"
         d="m 333,250 c 0,11.04569 -8.95431,20 -20,20 -11.04569,0 -20,-8.95431 -20,-20 0,-11.04569 8.95431,-20 20,-20 11.04569,0 20,8.95431 20,20 z" />
      <text
         id="text3319"
         y="255"
         x="303"
         font-size="14"
         style="font-size:14px;fill:#ffffff;font-family:Arial">5.2</text>
      <circle
         id="circle3321"
         style="fill:#c0c0c0;fill-opacity:1;stroke:#808080;stroke-width:1;stroke-opacity:1"
         r="20"
         cy="250"
         cx="380"
         sodipodi:cx="380"
         sodipodi:cy="250"
         sodipodi:rx="20"
         sodipodi:ry="20"
         d="m 400,250 c 0,11.04569 -8.95431,20 -20,20 -11.04569,0 -20,-8.95431 -20,-20 0,-11.04569 8.95431,-20 20,-20 11.04569,0 20,8.95431 20,20 z" />
      <text
         id="text3323"
         y="255"
         x="370"
         font-size="14"
         style="font-size:14px;fill:#ffffff;font-family:Arial">5.5</text>
      <circle
         id="circle3325"
         style="fill:#c0c0c0;fill-opacity:1;stroke:#808080;stroke-width:1;stroke-opacity:1"
         r="20"
         cy="250"
         cx="446"
         sodipodi:cx="446"
         sodipodi:cy="250"
         sodipodi:rx="20"
         sodipodi:ry="20"
         d="m 466,250 c 0,11.04569 -8.95431,20 -20,20 -11.04569,0 -20,-8.95431 -20,-20 0,-11.04569 8.95431,-20 20,-20 11.04569,0 20,8.95431 20,20 z" />
      <text
         id="text3327"
         y="255"
         x="436"
         font-size="14"
         style="font-size:14px;fill:#ffffff;font-family:Arial">5.7</text>
      <circle
         id="circle3329"
         style="fill:#c0c0c0;fill-opacity:1;stroke:#808080;stroke-width:1;stroke-opacity:1"
         r="20"
         cy="250"
         cx="513"
         sodipodi:cx="513"
         sodipodi:cy="250"
         sodipodi:rx="20"
         sodipodi:ry="20"
         d="m 533,250 c 0,11.04569 -8.95431,20 -20,20 -11.04569,0 -20,-8.95431 -20,-20 0,-11.04569 8.95431,-20 20,-20 11.04569,0 20,8.95431 20,20 z" />
      <text
         id="text3331"
         y="255"
         x="503"
         font-size="14"
         style="font-size:14px;fill:#ffffff;font-family:Arial">5.9</text>
      <circle
         id="circle3333"
         style="fill:#c0c0c0;fill-opacity:1;stroke:#808080;stroke-width:1;stroke-opacity:1"
         r="20"
         cy="300"
         cx="100"
         sodipodi:cx="100"
         sodipodi:cy="300"
         sodipodi:rx="20"
         sodipodi:ry="20"
         d="m 120,300 c 0,11.04569 -8.95431,20 -20,20 -11.045695,0 -20,-8.95431 -20,-20 0,-11.04569 8.954305,-20 20,-20 11.04569,0 20,8.95431 20,20 z" />
      <text
         id="text3335"
         y="305"
         x="90"
         font-size="14"
         style="font-size:14px;fill:#ffffff;font-family:Arial">6.1</text>
      <circle
         id="circle3337"
         style="fill:#c0c0c0;fill-opacity:1;stroke:#808080;stroke-width:1;stroke-opacity:1"
         r="20"
         cy="300"
         cx="220"
         sodipodi:cx="220"
         sodipodi:cy="300"
         sodipodi:rx="20"
         sodipodi:ry="20"
         d="m 240,300 c 0,11.04569 -8.95431,20 -20,20 -11.04569,0 -20,-8.95431 -20,-20 0,-11.04569 8.95431,-20 20,-20 11.04569,0 20,8.95431 20,20 z" />
      <text
         id="text3339"
         y="305"
         x="208"
         font-size="14"
         style="font-size:14px;fill:#ffffff;font-family:Arial">6.12</text>
      <circle
         id="circle3341"
         style="fill:#c0c0c0;fill-opacity:1;stroke:#808080;stroke-width:1;stroke-opacity:1"
         r="20"
         cy="300"
         cx="340"
         sodipodi:cx="340"
         sodipodi:cy="300"
         sodipodi:rx="20"
         sodipodi:ry="20"
         d="m 360,300 c 0,11.04569 -8.95431,20 -20,20 -11.04569,0 -20,-8.95431 -20,-20 0,-11.04569 8.95431,-20 20,-20 11.04569,0 20,8.95431 20,20 z" />
      <text
         id="text3343"
         y="305"
         x="330"
         font-size="14"
         style="font-size:14px;fill:#ffffff;font-family:Arial">6.4</text>
      <circle
         id="circle3345"
         style="fill:#c0c0c0;fill-opacity:1;stroke:#808080;stroke-width:1;stroke-opacity:1"
         r="20"
         cy="300"
         cx="460"
         sodipodi:cx="460"
         sodipodi:cy="300"
         sodipodi:rx="20"
         sodipodi:ry="20"
         d="m 480,300 c 0,11.04569 -8.95431,20 -20,20 -11.04569,0 -20,-8.95431 -20,-20 0,-11.04569 8.95431,-20 20,-20 11.04569,0 20,8.95431 20,20 z" />
      <text
         id="text3347"
         y="305"
         x="450"
         font-size="14"
         style="font-size:14px;fill:#ffffff;font-family:Arial">6.6</text>
      <circle
         id="circle3349"
         style="fill:#c0c0c0;fill-opacity:1;stroke:#808080;stroke-width:1;stroke-opacity:1"
         r="20"
         cy="350"
         cx="280"
         sodipodi:cx="280"
         sodipodi:cy="350"
         sodipodi:rx="20"
         sodipodi:ry="20"
         d="m 300,350 c 0,11.04569 -8.95431,20 -20,20 -11.04569,0 -20,-8.95431 -20,-20 0,-11.04569 8.95431,-20 20,-20 11.04569,0 20,8.95431 20,20 z" />
      <text
         id="text3351"
         y="355"
         x="270"
         font-size="14"
         style="font-size:14px;fill:#ffffff;font-family:Arial">7.3</text>
      <circle
         id="circle3353"
         style="fill:#c0c0c0;fill-opacity:1;stroke:#808080;stroke-width:1;stroke-opacity:1"
         r="20"
         cy="400"
         cx="280"
         sodipodi:cx="280"
         sodipodi:cy="400"
         sodipodi:rx="20"
         sodipodi:ry="20"
         d="m 300,400 c 0,11.04569 -8.95431,20 -20,20 -11.04569,0 -20,-8.95431 -20,-20 0,-11.04569 8.95431,-20 20,-20 11.04569,0 20,8.95431 20,20 z" />
      <text
         id="text3355"
         y="405"
         x="270"
         font-size="14"
         style="font-size:14px;fill:#ffffff;font-family:Arial">8.2</text>
      <circle
         id="circle3357"
         style="fill:#c0c0c0;fill-opacity:1;stroke:#808080;stroke-width:1;stroke-opacity:1"
         r="20"
         cy="450"
         cx="280"
         sodipodi:cx="280"
         sodipodi:cy="450"
         sodipodi:rx="20"
         sodipodi:ry="20"
         d="m 300,450 c 0,11.04569 -8.95431,20 -20,20 -11.04569,0 -20,-8.95431 -20,-20 0,-11.04569 8.95431,-20 20,-20 11.04569,0 20,8.95431 20,20 z" />
      <text
         id="text3359"
         y="455"
         x="270"
         font-size="14"
         style="font-size:14px;fill:#ffffff;font-family:Arial">9.3</text>
    </g>
    <rect
       style="opacity:0.98999999;fill:#148200;fill-opacity:0.65490196;fill-rule:nonzero;stroke:#000000;stroke-width:1.0629921;stroke-miterlimit:10;stroke-opacity:1;stroke-dasharray:none"
       id="rect3556"
       width="15.152288"
       height="17.172594"
       x="416.74622"
       y="789.25049" />
    <rect
       style="opacity:0.98999999;fill:#960000;fill-opacity:0.89411765;fill-rule:nonzero;stroke:#000000;stroke-width:1.0629921;stroke-miterlimit:10;stroke-opacity:1;stroke-dasharray:none"
       id="rect3556-3"
       width="15.152288"
       height="17.172594"
       x="417.23096"
       y="815.04999" />
    <rect
       style="opacity:0.98999999;fill:#fa9600;fill-opacity:1;fill-rule:nonzero;stroke:#000000;stroke-width:1.0629921;stroke-miterlimit:10;stroke-opacity:1;stroke-dasharray:none"
       id="rect3556-6"
       width="15.152288"
       height="17.172594"
       x="416.24115"
       y="842.38501" />
    <text
       xml:space="preserve"
       style="font-size:40px;font-style:normal;font-weight:normal;line-height:125%;letter-spacing:0px;word-spacing:0px;fill:#000000;fill-opacity:1;stroke:none;font-family:Sans"
       x="440"
       y="806.36218"
       id="text4353"
       sodipodi:linespacing="125%"><tspan
         sodipodi:role="line"
         id="tspan4355"
         x="440"
         y="806.36218"
         style="font-size:20px">PRoFAR increasing</tspan></text>
    <text
       xml:space="preserve"
       style="font-size:40px;font-style:normal;font-weight:normal;line-height:125%;letter-spacing:0px;word-spacing:0px;fill:#000000;fill-opacity:1;stroke:none;font-family:Sans"
       x="440"
       y="832.36218"
       id="text4353-7"
       sodipodi:linespacing="125%"><tspan
         sodipodi:role="line"
         id="tspan4355-5"
         x="440"
         y="832.36218"
         style="font-size:20px">PRA increasing</tspan></text>
    <text
       xml:space="preserve"
       style="font-size:40px;font-style:normal;font-weight:normal;line-height:125%;letter-spacing:0px;word-spacing:0px;fill:#000000;fill-opacity:1;stroke:none;font-family:Sans"
       x="440"
       y="860.36218"
       id="text4353-3"
       sodipodi:linespacing="125%"><tspan
         sodipodi:role="line"
         id="tspan4355-56"
         x="440"
         y="860.36218"
         style="font-size:20px">PRA and PRoFAR increasing</tspan></text>
  </g>
</svg>
